<?xml version="1.0" encoding="utf-8"?>
<svg xmlns="http://www.w3.org/2000/svg" width="80.5" height="58.945">
  <g data-name="Step 1 (White _ Green)">
    <g data-name="3-STEPS">
      <g data-name="Step-1-(White-&amp;-Green)" transform="translate(0 -.5)">
        <path d="M37.024 44.291L48.1 35.855l9.027 8.436 9.027-8.436 11.075 8.436Q73.882 58 57.126 58T37.024 44.291z" fill="#49c5b6" fill-rule="evenodd"/>
        <path d="M64.85 54.445l.091-.032c.364-.132.778-.3 1.228-.516a17.094 17.094 0 0 0 3.824-2.48C73.445 48.45 75.5 44.3 75.5 38.594c0-3.845-2.078-7.748-6.311-12.863-.531-.641-3.953-4.608-4.772-5.648-1.795-2.278-2.688-3.918-2.688-5.683A16.509 16.509 0 0 1 64.8 5.664H48.782c2.308 3.22 3.49 6.105 3.49 8.736 0 1.765-.893 3.405-2.688 5.683-.819 1.039-4.241 5.007-4.772 5.648-4.234 5.114-6.312 9.017-6.312 12.863 0 5.71 2.055 9.856 5.507 12.823a17.094 17.094 0 0 0 3.824 2.48c.45.213.864.384 1.228.516l.091.032zm-16.095 5a2.5 2.5 0 0 1-.674-.092 16.032 16.032 0 0 1-2.388-.936 22.057 22.057 0 0 1-4.945-3.208c-4.52-3.884-7.248-9.391-7.248-16.615 0-5.338 2.538-10.106 7.46-16.051.594-.718 3.96-4.619 4.7-5.554a14.517 14.517 0 0 0 1.328-1.918 2.484 2.484 0 0 0 .287-.671c0-2.157-1.822-5.263-5.625-9.393A2.607 2.607 0 0 1 43.485.664h27.03a2.4 2.4 0 0 1 1.508 4.344c-3.142 2.377-5.294 6.729-5.294 9.393a2.484 2.484 0 0 0 .287.671 14.516 14.516 0 0 0 1.328 1.918c.736.935 4.1 4.836 4.7 5.554 4.922 5.945 7.46 10.714 7.46 16.051 0 7.225-2.729 12.732-7.248 16.615a22.057 22.057 0 0 1-4.945 3.208 16.032 16.032 0 0 1-2.388.936 2.5 2.5 0 0 1-.674.092z" fill="#fff" fill-rule="evenodd"/>
        <path d="M38 .5h37.9v5.273H38z" fill="#fff" fill-rule="evenodd"/>
        <path data-name="Path-8" d="M57.126 54.445c9.4 0 14.953-3.354 17.231-10.253l-8.04-6.124-9.191 8.59-9.191-8.59-8.035 6.124c2.274 6.9 7.824 10.253 17.226 10.253zm8.862-22.914l14.057 10.708-.388 1.59c-2.522 10.332-10.27 15.616-22.531 15.616S37.118 54.161 34.6 43.829l-.388-1.59 14.052-10.707 8.862 8.283z" fill="#fff" fill-rule="evenodd"/>
        <g transform="translate(0 6.5)">
          <path d="M34.178 38H5.384A5.4 5.4 0 0 1 1.6 36.387 5.239 5.239 0 0 1 0 32.561V9.607a5.507 5.507 0 0 1 1.6-3.825 5.136 5.136 0 0 1 3.784-1.614H13V0h22v4.168h7.616A7.142 7.142 0 0 1 46.4 5.782a14.209 14.209 0 0 1 .781 1.252 4.657 4.657 0 0 1 .087.867 2.484 2.484 0 0 1-.287.671 14.517 14.517 0 0 1-1.328 1.918c-.4.5-1.555 1.867-2.633 3.13v-2.168a2.443 2.443 0 0 0-.76-1.782 2.624 2.624 0 0 0-1.846-.736h-9.827V4.955H17.452v3.979H7.631a2.624 2.624 0 0 0-1.846.736 2.443 2.443 0 0 0-.762 1.781v18.687a2.443 2.443 0 0 0 .762 1.781 2.624 2.624 0 0 0 1.846.736h25.875A24.588 24.588 0 0 0 34.178 38z" fill="#fff" fill-rule="evenodd"/>
          <path data-name="Shape" d="M24 13.5a6.995 6.995 0 1 0 4.951 2.049A7.012 7.012 0 0 0 24 13.5z" fill="#49c5b6"/>
          <circle cx="2" cy="2" r="2" transform="translate(8 12)" fill="#fff"/>
        </g>
        <circle data-name="Oval" cx="2.5" cy="2.5" r="2.5" transform="translate(54.439 26.996)" fill="#fff"/>
      </g>
    </g>
  </g>
</svg>