<?xml version="1.0" encoding="utf-8"?>
<svg xmlns="http://www.w3.org/2000/svg" width="120" height="40">
  <g data-name="Desktop/Footer/Default">
    <g data-name="Google-Play">
      <path d="M2 0h116a2 2 0 0 1 2 2v36a2 2 0 0 1-2 2H2a2 2 0 0 1-2-2V2a2 2 0 0 1 2-2zm0 2v36h116V2z" fill="#fff"/>
      <g fill="#fff">
        <path d="M13.352 29.154l9.4-4.379a.5.5 0 0 0 .142-.808l-2.15-2.14a.5.5 0 0 0-.7 0l-7.028 6.84a.3.3 0 0 0 .336.487z"/>
        <path data-name="Path" d="M10.154 12.332a2.692 2.692 0 0 0-.117.738v15.157a2.678 2.678 0 0 0 .1.692.5.5 0 0 0 .836.224l8.2-8.165a.5.5 0 0 0 0-.707l-8.185-8.155a.5.5 0 0 0-.833.216zM22.759 16.484l-10.038-5a.3.3 0 0 0-.343.484l7.665 7.458a.5.5 0 0 0 .7 0l2.145-2.134a.5.5 0 0 0-.13-.8zM24.59 23.695l2.657-1.431c1.667-.9 1.666-2.363 0-3.259l-2.676-1.435a.5.5 0 0 0-.589.086l-2.626 2.613a.5.5 0 0 0 0 .707L24 23.607a.5.5 0 0 0 .59.088z"/>
      </g>
      <path d="M58.86 23.093a3.448 3.448 0 0 0-3.524 3.524 3.5 3.5 0 0 0 3.524 3.523 3.448 3.448 0 0 0 3.524-3.524 3.4 3.4 0 0 0-3.524-3.523zm0 5.572a2.034 2.034 0 0 1-1.967-2.131A2.034 2.034 0 0 1 58.86 24.4a1.985 1.985 0 0 1 1.967 2.131 2.034 2.034 0 0 1-1.967 2.134zm-7.621-5.572a3.448 3.448 0 0 0-3.524 3.524 3.5 3.5 0 0 0 3.524 3.524 3.448 3.448 0 0 0 3.524-3.524 3.4 3.4 0 0 0-3.524-3.524zm0 5.572a2.034 2.034 0 0 1-1.967-2.131 2.034 2.034 0 0 1 1.967-2.134 1.985 1.985 0 0 1 1.967 2.131 2.034 2.034 0 0 1-1.967 2.134zm-9.1-4.507v1.475h3.527a3.1 3.1 0 0 1-.819 1.885 3.627 3.627 0 0 1-2.7 1.065 3.815 3.815 0 0 1-3.856-3.933 3.866 3.866 0 0 1 3.852-3.934 4.063 4.063 0 0 1 2.7 1.065l1.069-1.065a5.251 5.251 0 0 0-3.687-1.475 5.528 5.528 0 0 0-5.491 5.409 5.528 5.528 0 0 0 5.491 5.409 4.716 4.716 0 0 0 3.769-1.559 4.933 4.933 0 0 0 1.311-3.442 3.073 3.073 0 0 0-.082-.9zm37.2 1.147a3.184 3.184 0 0 0-2.939-2.212 3.3 3.3 0 0 0-3.278 3.524 3.429 3.429 0 0 0 3.442 3.524 3.362 3.362 0 0 0 2.868-1.557l-1.147-.819a2 2 0 0 1-1.721.983 1.778 1.778 0 0 1-1.724-1.066l4.671-1.967-.164-.41zm-4.745 1.147A1.991 1.991 0 0 1 76.4 24.4a1.45 1.45 0 0 1 1.311.738zm-3.852 3.36H72.3V19.569h-1.557zm-2.458-5.982a2.7 2.7 0 0 0-1.884-.819 3.521 3.521 0 0 0-3.36 3.524 3.393 3.393 0 0 0 3.36 3.442 2.353 2.353 0 0 0 1.8-.819h.082v.492a1.863 1.863 0 0 1-3.606.819l-1.311.574a3.381 3.381 0 0 0 3.114 2.049c1.8 0 3.278-1.065 3.278-3.606v-6.23h-1.473v.574zm-1.8 4.835a2.034 2.034 0 0 1-1.967-2.131 2.034 2.034 0 0 1 1.964-2.134 1.972 1.972 0 0 1 1.885 2.131 1.972 1.972 0 0 1-1.885 2.134zm20-9.1h-3.695v10.247h1.557v-3.851h2.131a3.234 3.234 0 0 0 3.36-3.2 3.234 3.234 0 0 0-3.36-3.2zm.082 4.917h-2.22v-3.52h2.213a1.8 1.8 0 0 1 1.8 1.721 1.875 1.875 0 0 1-1.8 1.803zm9.424-1.475a2.754 2.754 0 0 0-2.7 1.557l1.393.574a1.448 1.448 0 0 1 1.382-.738 1.54 1.54 0 0 1 1.635 1.315v.085a3.25 3.25 0 0 0-1.557-.41c-1.475 0-2.95.819-2.95 2.295a2.4 2.4 0 0 0 2.54 2.295 2.306 2.306 0 0 0 1.967-.987h.082v.819h1.475v-3.933a3.1 3.1 0 0 0-3.278-2.868zm-.164 5.654c-.492 0-1.229-.246-1.229-.9 0-.819.9-1.065 1.639-1.065a3.169 3.169 0 0 1 1.393.328 1.909 1.909 0 0 1-1.8 1.639zm8.6-5.409l-1.726 4.43h-.08l-1.8-4.425h-1.641l2.7 6.228-1.557 3.442h1.557l4.179-9.67zm-13.77 6.56h1.557V19.569h-1.557z" fill="#fff"/>
      <path d="M41.015 14.055a2.02 2.02 0 0 1-1.462.618 2.346 2.346 0 0 1-.971-.2 2.455 2.455 0 0 1-.79-.56 2.67 2.67 0 0 1-.532-.84 2.756 2.756 0 0 1-.2-1.044 2.571 2.571 0 0 1 .2-1 2.573 2.573 0 0 1 1.348-1.382 2.458 2.458 0 0 1 1.012-.207 2.488 2.488 0 0 1 1.266.305 1.99 1.99 0 0 1 .794.822l-.761.553a1.4 1.4 0 0 0-.558-.589 1.549 1.549 0 0 0-.779-.2 1.345 1.345 0 0 0-.609.138 1.423 1.423 0 0 0-.473.378 1.776 1.776 0 0 0-.3.553 2.029 2.029 0 0 0-.107.662 1.928 1.928 0 0 0 .118.68 1.727 1.727 0 0 0 .325.549 1.519 1.519 0 0 0 .491.367 1.423 1.423 0 0 0 .617.135 1.8 1.8 0 0 0 1.374-.705v-.364h-1.059v-.735h1.9v2.655h-.842zm5.618-.3v.88h-3.641V9.473h3.574v.88h-2.555V11.6h2.208v.815h-2.208v1.345zm4.983-3.4h-1.678v4.284h-1.011v-4.286H47.25v-.88h4.364zm2.743 4.284V9.473h1.019v5.164zm6.3-4.284h-1.681v4.284h-1.011v-4.286H56.29v-.88h4.364zm4.98 4.32a2.413 2.413 0 0 1-1.045-.222 2.564 2.564 0 0 1-.8-.589 2.674 2.674 0 0 1-.521-.84 2.638 2.638 0 0 1-.185-.967 2.561 2.561 0 0 1 .2-.989 2.724 2.724 0 0 1 .539-.836 2.571 2.571 0 0 1 .816-.578 2.454 2.454 0 0 1 1.026-.215 2.332 2.332 0 0 1 1.038.229 2.588 2.588 0 0 1 .8.6 2.755 2.755 0 0 1 .517.844 2.619 2.619 0 0 1 .185.96 2.577 2.577 0 0 1-.192.985 2.67 2.67 0 0 1-.532.829 2.556 2.556 0 0 1-.812.575 2.454 2.454 0 0 1-1.038.212zm-1.521-2.618a2.049 2.049 0 0 0 .1.647 1.719 1.719 0 0 0 .3.553 1.483 1.483 0 0 0 .48.385 1.507 1.507 0 0 0 1.3 0 1.483 1.483 0 0 0 .48-.4 1.758 1.758 0 0 0 .3-.556 2.038 2.038 0 0 0 .1-.629 1.985 1.985 0 0 0-.107-.647 1.776 1.776 0 0 0-.3-.553 1.441 1.441 0 0 0-.48-.382 1.516 1.516 0 0 0-1.3.007 1.452 1.452 0 0 0-.48.393 1.754 1.754 0 0 0-.292.553 2.038 2.038 0 0 0-.105.627zm6.149-.727v3.309h-1.023V9.473h.79l2.732 3.389V9.48h1.019v5.156h-.827z" fill="#fff" fill-rule="evenodd"/>
    </g>
  </g>
</svg>