<?xml version="1.0" encoding="utf-8"?>
<svg xmlns="http://www.w3.org/2000/svg" width="68.183" height="60.38">
  <g data-name="Step 2 (White _ Green)">
    <g data-name="3-STEPS">
      <g data-name="Step-2-(White-&amp;-Green)">
        <g fill="#fff" fill-rule="evenodd">
          <path d="M28.469 13.081A18.416 18.416 0 0 1 31.3 6.598H15.282c2.308 3.22 3.49 6.105 3.49 8.736 0 1.765-.893 3.405-2.688 5.683-.819 1.039-4.241 5.007-4.772 5.648C7.078 31.779 5 35.682 5 39.528c0 5.71 2.055 9.856 5.507 12.823a17.094 17.094 0 0 0 3.824 2.48c.45.213.864.384 1.228.516l.091.032h14.92a22.188 22.188 0 0 0 10.079-.051q-.436.419-.9.815a22.057 22.057 0 0 1-4.945 3.208 16.032 16.032 0 0 1-2.388.936 2.5 2.5 0 0 1-.674.092H15.255a2.5 2.5 0 0 1-.674-.092 16.032 16.032 0 0 1-2.388-.936 22.057 22.057 0 0 1-4.945-3.208C2.729 52.259 0 46.752 0 39.528c0-5.338 2.538-10.106 7.46-16.051.594-.718 3.96-4.619 4.7-5.554a14.517 14.517 0 0 0 1.328-1.918 2.484 2.484 0 0 0 .287-.671c0-2.157-1.822-5.413-5.625-9.543a2.5 2.5 0 0 1 1.835-4.193h27.03a2.5 2.5 0 0 1 1.508 4.494 14.914 14.914 0 0 0-4.5 5.891 21.909 21.909 0 0 0-5.554 1.098z"/>
          <path d="M4.5 1.434h37.9v5.273H4.5z"/>
          <path data-name="Combined-Shape" d="M28.968 54.948a22.167 22.167 0 0 0 10.8.572c-3.9 3.226-9.326 4.859-16.142 4.859-12.26 0-20.009-5.284-22.531-15.616l-.388-1.59 12.8-9.749q-.007.255-.007.51a22.05 22.05 0 0 0 .641 5.292l-7.741 5.9c2.278 6.9 7.829 10.253 17.231 10.253a30.551 30.551 0 0 0 5.337-.431z"/>
        </g>
        <g data-name="Group-2-Copy">
          <g data-name="Group-12-Copy-3" fill="#49c5b6" transform="translate(16.5 10.934)">
            <path data-name="Combined-Shape" d="M13.806.589A23.071 23.071 0 0 1 19 0q.655 0 1.3.036a7.5 7.5 0 0 0-.059.911 3.2 3.2 0 0 0 .37.865 18.7 18.7 0 0 0 1.711 2.47c.949 1.2 5.284 6.23 6.05 7.155 6.34 7.659 9.61 13.8 9.61 20.678a34.086 34.086 0 0 1-.258 4.244 23.111 23.111 0 0 1-7.748 6.858q-.628.193-1.271.35a22.281 22.281 0 0 0 2.836-11.452c0-4.954-2.677-9.982-8.131-16.57-.684-.826-5.092-5.937-6.147-7.276C14.952 5.334 13.8 3.221 13.8.947q0-.178.006-.358z"/>
            <path data-name="Combined-Shape" d="M37.395 36.809a23.109 23.109 0 0 1-7.418 6.408q-.947.29-1.926.5a20.458 20.458 0 0 0 2.02-4.391l-10.358-7.888-9.476 8.857A23.226 23.226 0 0 1 .764 27.044l7.109 6.644 11.416-10.67z"/>
            <ellipse cx="3.299" cy="3.396" rx="3.299" ry="3.396" transform="translate(4.41 17.718)"/>
          </g>
        </g>
        <path d="M49.352 22.255l-3.424-3.424L64.76.001l3.424 3.423z" fill="#fff" fill-rule="evenodd"/>
        <path data-name="Oval" d="M53.5 33.934a18 18 0 1 0-18 18 18 18 0 0 0 18-18zm5 0a23 23 0 1 1-23-23 23 23 0 0 1 23 23z" fill="#fff" fill-rule="evenodd"/>
      </g>
    </g>
  </g>
</svg>