<?xml version="1.0" encoding="utf-8"?>
<svg xmlns="http://www.w3.org/2000/svg" width="39.999" height="40">
  <g data-name="Twitter">
    <path d="M0 0h40v40H0z" fill="none"/>
    <path d="M27.951 15.923c.01.175.013.352.013.528a11.6 11.6 0 0 1-11.675 11.675 11.6 11.6 0 0 1-6.29-1.842 8.668 8.668 0 0 0 .98.057 8.211 8.211 0 0 0 5.093-1.757 4.107 4.107 0 0 1-3.83-2.848 4.206 4.206 0 0 0 .772.072 4.119 4.119 0 0 0 1.08-.143 4.109 4.109 0 0 1-3.29-4.024v-.05a4.082 4.082 0 0 0 1.858.513 4.111 4.111 0 0 1-1.273-5.48 11.645 11.645 0 0 0 8.46 4.287 4.106 4.106 0 0 1 6.992-3.742 8.253 8.253 0 0 0 2.607-1 4.106 4.106 0 0 1-1.805 2.272A8.153 8.153 0 0 0 30 13.799a8.326 8.326 0 0 1-2.048 2.123" fill="#fff" fill-rule="evenodd"/>
  </g>
</svg>