<?xml version="1.0" encoding="utf-8"?>
<svg xmlns="http://www.w3.org/2000/svg" data-name="Step 3 (White _ Green)" width="58.134" height="63.897">
  <g data-name="3-STEPS">
    <g data-name="Step-3-(White-&amp;-Green)">
      <path d="M7.778 5.285a2.571 2.571 0 0 0-2.493 2.642v43.16a2.571 2.571 0 0 0 2.493 2.643h28.151c.151 0 .3 4.4.46 4.4h14.242a43.028 43.028 0 0 0 .414-4.4s-1.719-1.183-1.719-2.642V7.927a2.571 2.571 0 0 0-2.493-2.642zM7.44 0h38.851a7.7 7.7 0 0 1 7.44 7.927v43.16a7.7 7.7 0 0 1-7.44 7.927H7.44A7.7 7.7 0 0 1 0 51.088V7.927A7.7 7.7 0 0 1 7.44 0z" fill="#fff" fill-rule="evenodd"/>
      <path d="M33.841 45.33a12.759 12.759 0 0 0 2.919-1.837c2.7-2.318 3.935-5.525 3.935-9.524 0-3.058-1.294-5.852-3.929-9.035-.167-.2-.548-.626-1.371-1.537l-.024-.027a46.35 46.35 0 0 1-1.01-1.146c-.144-.183-.084.015-.084-.2a4.077 4.077 0 0 1 .757-1.953l2.335-3.449a2 2 0 0 0-1.657-3.122H19.344a2 2 0 0 0-1.626 3.165l2.507 3.5a3 3 0 0 1 .693 1.861c0 .216.06.018-.084.2-.082.1-.457.53-1.01 1.146l-.024.028c-.822.911-1.2 1.335-1.371 1.537-2.635 3.18-3.929 5.973-3.929 9.032 0 4 1.237 7.206 3.935 9.524a12.759 12.759 0 0 0 2.919 1.837 5.563 5.563 0 0 0 .889.328c.1.03.209.059.319.087l.4.1.456.161h9.072q1.04-.529 1.351-.676zm-2.788-3.53h-6.912a8.192 8.192 0 0 1-.987-.271 8.929 8.929 0 0 1-1.976-1.229c-1.7-1.465-2.469-3.512-2.469-6.331 0-1.9.872-3.826 2.962-6.351.262-.316 2.064-2.275 2.469-2.789a4 4 0 0 0 .987-2.806 7.16 7.16 0 0 0-1.481-4.313h7.9a8.087 8.087 0 0 0-1.481 4.313 4 4 0 0 0 .987 2.806c.4.513 2.207 2.472 2.469 2.789 2.09 2.525 2.962 4.452 2.962 6.351 0 2.819-.764 4.867-2.469 6.331a8.929 8.929 0 0 1-1.975 1.224 8.192 8.192 0 0 1-.986.276z" fill="#fff" fill-rule="evenodd"/>
      <g fill-rule="evenodd">
        <path d="M56.423 34.805A12.835 12.835 0 1 1 43.586 21.97a12.835 12.835 0 0 1 12.837 12.835z" fill="#49c5b6"/>
        <path data-name="Combined-Shape" d="M32.543 63.897V44.384h4.843v11.875l5.776-2.728 5.774 2.728V44.384h4.841v19.513l-10.616-5.014z" fill="#fff"/>
        <path data-name="Path" d="M40.768 31.481l-3.17 3.063 5.541 5.445 11.147-10.504-2.41-4.064-8.737 8.5z" fill="#fff"/>
        <path d="M43.16 50.207a14.974 14.974 0 1 0-14.974-14.974A14.974 14.974 0 0 0 43.16 50.207zm0-4.4a10.57 10.57 0 1 1 10.57-10.57 10.57 10.57 0 0 1-10.57 10.566z" fill="#fff"/>
      </g>
    </g>
  </g>
</svg>