<?xml version="1.0" encoding="utf-8"?>
<svg xmlns="http://www.w3.org/2000/svg" width="47" height="34">
  <g data-name="PayPal">
    <rect width="47" height="34" rx="4" fill="#d8d8d8"/>
    <g fill-rule="evenodd">
      <path d="M29.805 6.823C28.782 5.607 26.882 5 24.252 5h-7.306a1.269 1.269 0 0 0-1.023.911L13 25.811a.687.687 0 0 0 .584.76h4.53l1.169-7.443v.3a1.268 1.268 0 0 1 1.023-.911H22.5c4.238 0 7.452-1.823 8.475-6.837v-.452a5.452 5.452 0 0 0-1.168-4.405" fill="#263b80"/>
      <path data-name="Path" d="M29.881 12.252v-.42-.041a3.988 3.988 0 0 0-.664-.371 6.264 6.264 0 0 0-2.131-.427h-6.351a1.014 1.014 0 0 0-.986.868L18.628 19.1v.279a1.2 1.2 0 0 1 .985-.838h2.11c4.077.001 7.177-1.676 8.158-6.289z" fill="#232c65"/>
      <path data-name="Path" d="M31.875 12.9a3.916 3.916 0 0 0-1.408-1.912v.496c-1.007 4.977-4.167 6.785-8.327 6.785h-2.154a1.249 1.249 0 0 0-1.005.9v-.116c-.016.039-.032.077-.044.116l-.811 5.194-.294 1.888-.332 2.115a.54.54 0 0 0 .574.6h3.58a1.031 1.031 0 0 0 1.016-.9l.03-.2.687-4.474s.09-1.055 1.07-1.055h.366c3.589 0 6.46-1.507 7.177-6.027a7.444 7.444 0 0 0-.125-3.41z" fill="#139ad6"/>
    </g>
    <path d="M45.82 0A4.626 4.626 0 0 1 47 3.116v26.472C47 32 47 32 46 33a3.6 3.6 0 0 1-3.015 1H2.835A3.829 3.829 0 0 1 0 32.7z" fill="#fff" opacity=".15"/>
  </g>
</svg>