<?xml version="1.0" encoding="utf-8"?>
<svg xmlns="http://www.w3.org/2000/svg" width="47" height="34">
  <defs>
    <linearGradient id="a" x1=".57" x2=".57" y2="1" gradientUnits="objectBoundingBox">
      <stop offset="0" stop-color="#94defe"/>
      <stop offset="1" stop-color="#5ec1ec"/>
    </linearGradient>
    <linearGradient id="b" x1=".5" y1=".105" x2=".5" y2="1" gradientUnits="objectBoundingBox">
      <stop offset="0" stop-color="#fafbfc"/>
      <stop offset="1" stop-color="#eaedec"/>
    </linearGradient>
  </defs>
  <g data-name="AMEX">
    <path d="M47 29.75A4.106 4.106 0 0 1 43.083 34H3.917A4.106 4.106 0 0 1 0 29.75V4.25A4.106 4.106 0 0 1 3.917 0h39.166A4.106 4.106 0 0 1 47 4.25z" fill="url(#a)"/>
    <path data-name="Shape" d="M45.82 0A4.626 4.626 0 0 1 47 3.116v26.472C47 32 47 32 46 33a3.6 3.6 0 0 1-3.015 1H2.835A3.829 3.829 0 0 1 0 32.7z" fill="#fff" opacity=".15"/>
    <g fill="#fff">
      <path data-name="Shape" d="M13.394 20.918l-.368-1.478H10.6l-.381 1.478H8L10.439 13h2.694l2.467 7.918zm-.787-3.226l-.322-1.292c-.076-.287-.166-.659-.274-1.116s-.178-.784-.211-.984c-.03.184-.091.485-.181.906s-.291 1.25-.6 2.486zM19.668 20.918l-1.529-5.681h-.046q.108 1.451.107 2.255v3.425h-1.788v-7.886H19.1l1.56 5.6h.04l1.528-5.6h2.7v7.886h-1.86V17.46c0-.179 0-.378.008-.6s.028-.757.069-1.613H23.1l-1.509 5.67zM30.763 20.918h-4.438v-7.887h4.438v1.711h-2.42v1.241h2.24v1.71h-2.24v1.488h2.42zM38.806 20.918H36.47l-1.458-2.464-1.441 2.464h-2.286l2.479-4.035-2.332-3.852h2.24l1.35 2.438 1.298-2.438h2.306l-2.368 4.019z"/>
    </g>
    <g transform="translate(8 13)" fill="url(#b)">
      <path data-name="Shape" d="M5.394 7.918L5.026 6.44H2.6l-.381 1.478H0L2.439 0h2.694L7.6 7.918zm-.787-3.226L4.285 3.4c-.076-.287-.166-.659-.274-1.116S3.833 1.5 3.8 1.3c-.03.184-.091.485-.181.906s-.291 1.25-.6 2.486zM11.668 7.918l-1.529-5.681h-.046q.108 1.451.107 2.255v3.425H8.412V.031H11.1l1.56 5.6h.04l1.528-5.6h2.7v7.886h-1.86V4.46c0-.179 0-.378.008-.6s.028-.757.069-1.613H15.1l-1.509 5.67zM22.763 7.918h-4.438V.031h4.438v1.711h-2.42v1.241h2.24v1.71h-2.24v1.488h2.42zM30.806 7.918H28.47l-1.458-2.464-1.441 2.464h-2.286l2.479-4.035L23.432.031h2.24l1.35 2.438L28.32.031h2.306L28.258 4.05z"/>
    </g>
  </g>
</svg>