<?xml version="1.0" encoding="utf-8"?>
<svg xmlns="http://www.w3.org/2000/svg" width="120" height="40">
  <g data-name="Desktop/Footer/Default">
    <g data-name="App-Store" fill="#fff">
      <path d="M2 0h116a2 2 0 0 1 2 2v36a2 2 0 0 1-2 2H2a2 2 0 0 1-2-2V2a2 2 0 0 1 2-2zm0 2v36h116V2z"/>
      <path d="M23.632 19.948a4.891 4.891 0 0 1 2.33-4.1 5.012 5.012 0 0 0-3.946-2.138c-1.661-.174-3.271.99-4.116.99-.863 0-2.165-.976-3.568-.948a5.255 5.255 0 0 0-4.423 2.7C8 19.763 9.422 24.627 11.254 27.3c.917 1.311 1.988 2.774 3.39 2.722 1.372-.056 1.884-.873 3.539-.873 1.64 0 2.121.873 3.551.84 1.472-.023 2.4-1.316 3.283-2.639a10.815 10.815 0 0 0 1.5-3.057 4.732 4.732 0 0 1-2.885-4.345z"/>
      <path data-name="Path" d="M20.931 11.95a4.814 4.814 0 0 0 1.102-3.45 4.906 4.906 0 0 0-3.171 1.64 4.581 4.581 0 0 0-1.131 3.323 4.052 4.052 0 0 0 3.2-1.513z"/>
      <path d="M34.7 14.636V9.473h1.905a2.885 2.885 0 0 1 1.126.2 2.312 2.312 0 0 1 .809.553 2.281 2.281 0 0 1 .487.818 3.034 3.034 0 0 1 .162 1 2.981 2.981 0 0 1-.181 1.065 2.27 2.27 0 0 1-.521.815 2.348 2.348 0 0 1-.816.524 2.92 2.92 0 0 1-1.067.185zm3.463-2.589a2.167 2.167 0 0 0-.1-.684 1.523 1.523 0 0 0-.3-.538 1.347 1.347 0 0 0-.491-.349 1.679 1.679 0 0 0-.661-.124h-.886v3.4h.886a1.617 1.617 0 0 0 .668-.131 1.366 1.366 0 0 0 .487-.36 1.594 1.594 0 0 0 .3-.542 2.142 2.142 0 0 0 .098-.672zm4.325 2.625a2.413 2.413 0 0 1-1.045-.222 2.564 2.564 0 0 1-.8-.589 2.674 2.674 0 0 1-.521-.84 2.638 2.638 0 0 1-.185-.967 2.561 2.561 0 0 1 .2-.989 2.724 2.724 0 0 1 .539-.836 2.571 2.571 0 0 1 .816-.578 2.454 2.454 0 0 1 1.026-.215 2.332 2.332 0 0 1 1.038.229 2.588 2.588 0 0 1 .8.6 2.755 2.755 0 0 1 .517.844 2.619 2.619 0 0 1 .185.96 2.576 2.576 0 0 1-.192.985 2.67 2.67 0 0 1-.532.829 2.556 2.556 0 0 1-.812.575 2.454 2.454 0 0 1-1.033.215zm-1.521-2.618a2.049 2.049 0 0 0 .1.647 1.719 1.719 0 0 0 .3.553 1.483 1.483 0 0 0 .48.385 1.507 1.507 0 0 0 1.3 0 1.483 1.483 0 0 0 .48-.4 1.758 1.758 0 0 0 .3-.556 2.037 2.037 0 0 0 .1-.629 1.984 1.984 0 0 0-.107-.647 1.776 1.776 0 0 0-.3-.553 1.441 1.441 0 0 0-.48-.382 1.516 1.516 0 0 0-1.3.007 1.452 1.452 0 0 0-.48.393 1.755 1.755 0 0 0-.292.553 2.037 2.037 0 0 0-.1.63zm6.747-2.567h.938l.591 1.709.591-1.709h.945l-.894 2.349.665 1.651 1.484-4.015h1.108l-2.134 5.164h-.857l-.908-2.167-.908 2.167h-.857l-2.119-5.163h1.093l1.492 4.015.65-1.651zm7.25 1.84v3.309h-1.018V9.473h.79l2.732 3.389V9.48h1.019v5.156h-.827zm4.879 3.309V9.473h1.019v4.284h2.673v.88zm6.482.036a2.413 2.413 0 0 1-1.045-.222 2.564 2.564 0 0 1-.8-.589 2.674 2.674 0 0 1-.521-.84 2.638 2.638 0 0 1-.185-.967 2.561 2.561 0 0 1 .2-.989 2.725 2.725 0 0 1 .539-.836 2.571 2.571 0 0 1 .816-.578 2.454 2.454 0 0 1 1.026-.215 2.332 2.332 0 0 1 1.038.229 2.588 2.588 0 0 1 .8.6 2.755 2.755 0 0 1 .517.844 2.619 2.619 0 0 1 .185.96 2.577 2.577 0 0 1-.192.985 2.67 2.67 0 0 1-.532.829 2.556 2.556 0 0 1-.812.575 2.454 2.454 0 0 1-1.034.215zM64.8 12.055a2.049 2.049 0 0 0 .1.647 1.719 1.719 0 0 0 .3.553 1.483 1.483 0 0 0 .48.385 1.507 1.507 0 0 0 1.3 0 1.483 1.483 0 0 0 .48-.4 1.758 1.758 0 0 0 .3-.556 2.038 2.038 0 0 0 .1-.629 1.984 1.984 0 0 0-.107-.647 1.776 1.776 0 0 0-.3-.553 1.441 1.441 0 0 0-.48-.382 1.516 1.516 0 0 0-1.3.007 1.452 1.452 0 0 0-.48.393 1.755 1.755 0 0 0-.292.553 2.037 2.037 0 0 0-.101.629zm6.437-2.582h.9l1.994 5.164h-1.043l-.488-1.288h-1.831l-.48 1.287H69.24zm1.174 3.171l-.724-2.029-.753 2.029zm2.56 1.993V9.473h1.905a2.885 2.885 0 0 1 1.126.2 2.313 2.313 0 0 1 .809.553 2.281 2.281 0 0 1 .487.818 3.034 3.034 0 0 1 .162 1 2.981 2.981 0 0 1-.181 1.065 2.27 2.27 0 0 1-.521.815 2.348 2.348 0 0 1-.816.524 2.92 2.92 0 0 1-1.067.185zm3.463-2.589a2.167 2.167 0 0 0-.1-.684 1.523 1.523 0 0 0-.3-.538 1.347 1.347 0 0 0-.491-.349 1.679 1.679 0 0 0-.661-.124H76v3.4h.886a1.617 1.617 0 0 0 .668-.131 1.366 1.366 0 0 0 .487-.36 1.594 1.594 0 0 0 .3-.542 2.142 2.142 0 0 0 .098-.673zm6.366 2.625a2.413 2.413 0 0 1-1.045-.222 2.564 2.564 0 0 1-.8-.589 2.673 2.673 0 0 1-.521-.84 2.638 2.638 0 0 1-.185-.967 2.561 2.561 0 0 1 .2-.989 2.725 2.725 0 0 1 .539-.836 2.571 2.571 0 0 1 .816-.578 2.454 2.454 0 0 1 1.026-.215 2.332 2.332 0 0 1 1.038.229 2.588 2.588 0 0 1 .8.6 2.755 2.755 0 0 1 .517.844 2.619 2.619 0 0 1 .185.96 2.577 2.577 0 0 1-.192.985 2.67 2.67 0 0 1-.532.829 2.556 2.556 0 0 1-.812.575 2.454 2.454 0 0 1-1.034.214zm-1.521-2.618a2.049 2.049 0 0 0 .1.647 1.719 1.719 0 0 0 .3.553 1.483 1.483 0 0 0 .48.385 1.507 1.507 0 0 0 1.3 0 1.483 1.483 0 0 0 .48-.4 1.758 1.758 0 0 0 .3-.556 2.037 2.037 0 0 0 .1-.629 1.985 1.985 0 0 0-.107-.647 1.776 1.776 0 0 0-.3-.553 1.441 1.441 0 0 0-.48-.382 1.516 1.516 0 0 0-1.3.007 1.452 1.452 0 0 0-.48.393 1.754 1.754 0 0 0-.292.553 2.038 2.038 0 0 0-.101.629zm6.149-.727v3.309H88.41V9.473h.79l2.732 3.389V9.48h1.019v5.156h-.827zm10.63-.975h-1.676v4.284H97.37v-4.284h-1.676v-.88h4.364zm5.322-.88v5.164h-1.012v-2.2h-2.378v2.2h-1.019V9.473h1.019v2.087h2.378V9.473zm5 4.284v.88h-3.641V9.473h3.574v.88h-2.555V11.6h2.208v.815h-2.208v1.345z" fill-rule="evenodd"/>
      <path d="M42.657 29.4h-1.75l-.958-3.011h-3.332L35.7 29.4H34l3.3-10.251h2.04L42.657 29.4zm-3-4.274l-.867-2.677q-.138-.41-.517-1.931h-.031q-.153.654-.487 1.931l-.852 2.677zm11.471.488a4.185 4.185 0 0 1-1.025 2.98 3 3 0 0 1-2.279.974 2.282 2.282 0 0 1-2.111-1.048v3.88h-1.64v-7.959q0-1.184-.061-2.43h1.445l.092 1.172h.031a2.923 2.923 0 0 1 4.678-.29 4.087 4.087 0 0 1 .872 2.723zm-1.674.06a3.047 3.047 0 0 0-.487-1.78 1.683 1.683 0 0 0-1.43-.729 1.709 1.709 0 0 0-1.1.4 1.869 1.869 0 0 0-.646 1.058 2.144 2.144 0 0 0-.076.5v1.237a1.977 1.977 0 0 0 .495 1.362 1.642 1.642 0 0 0 1.285.555 1.684 1.684 0 0 0 1.445-.715 3.145 3.145 0 0 0 .518-1.886zm10.177-.06A4.185 4.185 0 0 1 58.61 28.6a3.007 3.007 0 0 1-2.28.974 2.282 2.282 0 0 1-2.111-1.048V32.4h-1.643v-7.959q0-1.184-.061-2.43h1.445l.092 1.172h.031a2.924 2.924 0 0 1 4.678-.29 4.091 4.091 0 0 1 .874 2.724zm-1.674.06a3.047 3.047 0 0 0-.488-1.78 1.68 1.68 0 0 0-1.429-.729 1.716 1.716 0 0 0-1.1.4 1.867 1.867 0 0 0-.646 1.058 2.194 2.194 0 0 0-.077.5v1.237a1.984 1.984 0 0 0 .494 1.362 1.646 1.646 0 0 0 1.289.555 1.682 1.682 0 0 0 1.445-.715 3.145 3.145 0 0 0 .518-1.886zm11.182.851a2.738 2.738 0 0 1-.911 2.13 4.041 4.041 0 0 1-2.793.9 4.876 4.876 0 0 1-2.655-.639l.38-1.369a4.571 4.571 0 0 0 2.373.639 2.239 2.239 0 0 0 1.445-.418 1.366 1.366 0 0 0 .519-1.117 1.431 1.431 0 0 0-.427-1.05 3.958 3.958 0 0 0-1.415-.79q-2.693-1-2.694-2.936a2.592 2.592 0 0 1 .951-2.068 3.76 3.76 0 0 1 2.52-.807 4.977 4.977 0 0 1 2.328.487l-.412 1.339a4.071 4.071 0 0 0-1.97-.471 2 2 0 0 0-1.359.426 1.219 1.219 0 0 0-.412.929 1.255 1.255 0 0 0 .472 1 5.321 5.321 0 0 0 1.49.79 5.052 5.052 0 0 1 1.947 1.246 2.6 2.6 0 0 1 .626 1.781zm5.445-3.284h-1.807v3.589q0 1.369.958 1.368a2.886 2.886 0 0 0 .73-.076l.045 1.247a3.723 3.723 0 0 1-1.277.182 1.969 1.969 0 0 1-1.522-.594 2.912 2.912 0 0 1-.548-1.993V23.24h-1.078v-1.232h1.079v-1.353l1.613-.487v1.84h1.811v1.236zm8.153 2.4a4.054 4.054 0 0 1-.974 2.8 3.472 3.472 0 0 1-2.708 1.125 3.31 3.31 0 0 1-2.594-1.078 3.931 3.931 0 0 1-.966-2.722 4.021 4.021 0 0 1 1-2.813 3.454 3.454 0 0 1 2.686-1.1 3.379 3.379 0 0 1 2.616 1.08 3.88 3.88 0 0 1 .944 2.713zm-1.7.038a3.309 3.309 0 0 0-.44-1.744 1.626 1.626 0 0 0-1.476-.88 1.65 1.65 0 0 0-1.506.88 3.364 3.364 0 0 0-.441 1.775 3.3 3.3 0 0 0 .441 1.745 1.685 1.685 0 0 0 2.969-.015 3.322 3.322 0 0 0 .454-1.756zm7.045-2.228a2.859 2.859 0 0 0-.518-.045 1.55 1.55 0 0 0-1.339.655 2.466 2.466 0 0 0-.41 1.46V29.4h-1.642v-5.061q0-1.164-.048-2.327h1.431l.06 1.414h.045a2.536 2.536 0 0 1 .821-1.172 1.987 1.987 0 0 1 1.187-.4 2.638 2.638 0 0 1 .411.03v1.567zm7.347 1.9a3.85 3.85 0 0 1-.06.745h-4.928a2.143 2.143 0 0 0 .715 1.675 2.445 2.445 0 0 0 1.612.516 5.452 5.452 0 0 0 1.994-.349l.257 1.139a6.166 6.166 0 0 1-2.479.457 3.594 3.594 0 0 1-2.7-1.011 3.736 3.736 0 0 1-.981-2.715 4.233 4.233 0 0 1 .914-2.782 3.149 3.149 0 0 1 2.585-1.185 2.756 2.756 0 0 1 2.42 1.185 3.989 3.989 0 0 1 .652 2.325zm-1.566-.426a2.223 2.223 0 0 0-.319-1.263 1.435 1.435 0 0 0-1.308-.686 1.558 1.558 0 0 0-1.308.669 2.453 2.453 0 0 0-.486 1.277z"/>
    </g>
  </g>
</svg>