<?xml version="1.0" encoding="utf-8"?>
<svg xmlns="http://www.w3.org/2000/svg" width="40" height="40">
  <path fill="none" d="M0 0h40v40H0z"/>
  <g fill="#fff">
    <path d="M31.271 24.709a6.671 6.671 0 0 1-1.852 4.8 6.549 6.549 0 0 1-4.712 1.769h-9.174a6.549 6.549 0 0 1-4.713-1.767 6.341 6.341 0 0 1-1.852-4.8v-9.26a6.228 6.228 0 0 1 6.565-6.564h9.256a6.47 6.47 0 0 1 4.715 1.851 6.414 6.414 0 0 1 1.767 4.713zM24.48 11.36h-8.8a4.372 4.372 0 0 0-3.12 1.118 4.372 4.372 0 0 0-1.12 3.12v8.8a4.41 4.41 0 0 0 1.2 3.2 4.51 4.51 0 0 0 3.12 1.12h8.72a4.372 4.372 0 0 0 3.12-1.12 4.1 4.1 0 0 0 1.2-3.12v-8.8a4.51 4.51 0 0 0-1.12-3.12 4.283 4.283 0 0 0-3.2-1.198z"/>
    <path data-name="Combined-Shape" d="M20.08 25.44a5.44 5.44 0 1 1 0-10.88 5.441 5.441 0 1 1 0 10.88zm0-2.1A3.34 3.34 0 1 0 16.74 20a3.34 3.34 0 0 0 3.34 3.34z"/>
    <path d="M25.76 15.6a1.28 1.28 0 1 1 1.28-1.28 1.264 1.264 0 0 1-1.28 1.28z" fill-rule="evenodd"/>
  </g>
</svg>