<?xml version="1.0" encoding="utf-8"?>
<svg xmlns="http://www.w3.org/2000/svg" width="32" height="32">
  <path fill="none" d="M30.769 1.231v29.538H1.231V1.231z"/>
  <g fill="#49c5b6">
    <path d="M0 16A15.984 15.984 0 0 1 16 0a1.369 1.369 0 0 1 0 2.738 13.262 13.262 0 0 0-9.377 22.645A13.257 13.257 0 0 0 29.262 16 1.369 1.369 0 1 1 32 16a16 16 0 0 1-30.74 6.229A15.851 15.851 0 0 1 0 16z"/>
    <path d="M14.044 19.301L10.32 13.87a1.227 1.227 0 0 0-1.8-.291 1.455 1.455 0 0 0-.27 1.936l4.747 6.923a1.232 1.232 0 0 0 2.06.012L25.74 7.219a1.456 1.456 0 0 0-.251-1.939 1.226 1.226 0 0 0-1.8.27z"/>
  </g>
</svg>