<?xml version="1.0" encoding="utf-8"?>
<svg xmlns="http://www.w3.org/2000/svg" width="159" height="36">
  <g data-name="Stripe" fill="#979797" fill-rule="evenodd">
    <path d="M150.983 36H8.017A8.166 8.166 0 0 1 0 27.692V8.308A8.166 8.166 0 0 1 8.017 0h142.966A8.166 8.166 0 0 1 159 8.308v19.384A8.166 8.166 0 0 1 150.983 36zm6.681-27.692a6.806 6.806 0 0 0-6.681-6.923H8.017a6.806 6.806 0 0 0-6.681 6.923v19.384a6.806 6.806 0 0 0 6.681 6.923h142.966a6.806 6.806 0 0 0 6.681-6.923z"/>
    <path data-name="Shape" d="M80.383 26.452h-1.729l1.338-3.378-2.663-6.874h1.827l1.673 4.676 1.687-4.676h1.827zM73.745 23.5a2.857 2.857 0 0 1-1.77-.671v.5H70.19V13.08h1.785v3.607a2.927 2.927 0 0 1 1.77-.656c1.868 0 3.151 1.539 3.151 3.735S75.613 23.5 73.745 23.5zm-.376-5.9a1.95 1.95 0 0 0-1.394.642v3.051a1.954 1.954 0 0 0 1.394.641c1 0 1.7-.883 1.7-2.166s-.696-2.168-1.701-2.168zm-10.4 5.232a2.8 2.8 0 0 1-1.77.671c-1.855 0-3.151-1.54-3.151-3.735s1.3-3.735 3.151-3.735a2.866 2.866 0 0 1 1.77.656V13.08h1.8v10.25h-1.8zm0-4.589a1.9 1.9 0 0 0-1.379-.642c-1.019 0-1.716.885-1.716 2.167s.7 2.166 1.716 2.166a1.9 1.9 0 0 0 1.379-.641zM52.34 20.265a2.006 2.006 0 0 0 2.119 1.825 4.208 4.208 0 0 0 2.078-.671v1.527a5.591 5.591 0 0 1-2.37.555 3.539 3.539 0 0 1-3.583-3.792 3.438 3.438 0 0 1 3.444-3.678c1.827 0 3.067 1.468 3.067 3.563a5.753 5.753 0 0 1-.028.671zm1.618-2.823a1.65 1.65 0 0 0-1.618 1.64h3.039c-.055-.969-.626-1.64-1.421-1.64zm-6.318 1.127v4.761h-1.784V16.2h1.784v.713a2.343 2.343 0 0 1 1.714-.883 2.058 2.058 0 0 1 .586.07v1.626a2.3 2.3 0 0 0-.627-.085 2.186 2.186 0 0 0-1.673.928zm-7.962 1.7A2.005 2.005 0 0 0 41.8 22.09a4.212 4.212 0 0 0 2.078-.671v1.527a5.6 5.6 0 0 1-2.37.555 3.539 3.539 0 0 1-3.583-3.792 3.438 3.438 0 0 1 3.444-3.678c1.826 0 3.067 1.468 3.067 3.563a5.753 5.753 0 0 1-.028.671zm1.622-2.827a1.65 1.65 0 0 0-1.616 1.64h3.039c-.06-.969-.633-1.64-1.423-1.64zm-7.85 5.889l-1.423-4.847-1.408 4.847h-1.6l-2.4-7.128H28.4l1.408 4.847 1.406-4.85h1.616l1.408 4.847 1.409-4.847h1.785l-2.384 7.128zm-10.911.169a3.526 3.526 0 0 1-3.6-3.735 3.593 3.593 0 1 1 7.181 0 3.516 3.516 0 0 1-3.581 3.735zm0-5.944c-1.045 0-1.77.9-1.77 2.209s.725 2.209 1.77 2.209 1.757-.9 1.757-2.209-.725-2.208-1.757-2.208zM14.7 19.809h-1.6v3.522h-1.786v-9.809H14.7a3.15 3.15 0 1 1 0 6.287zm-.25-4.8H13.1v3.322h1.353a1.663 1.663 0 1 0 0-3.322zM148.064 19.952h-7.372c.168 1.768 1.461 2.288 2.93 2.288a7.957 7.957 0 0 0 3.7-.834v3.037a8.422 8.422 0 0 1-4.174.977c-3.668 0-6.238-2.3-6.238-6.848 0-3.841 2.18-6.89 5.762-6.89s5.444 3.048 5.444 6.91a28.818 28.818 0 0 1-.052 1.36zm-5.418-5.194c-.942 0-1.988.712-1.988 2.411h3.894c0-1.698-.981-2.411-1.906-2.411zm-11.833 10.663a4.218 4.218 0 0 1-2.664-.954l-.008 4.267-3.765.8v-17.6h3.316l.2.931a4.214 4.214 0 0 1 2.949-1.182c2.644 0 5.135 2.385 5.135 6.776-.006 4.792-2.47 6.962-5.163 6.962zm-.878-10.4a2.27 2.27 0 0 0-1.8.748l.023 5.6a2.248 2.248 0 0 0 1.776.716c1.393 0 2.326-1.518 2.326-3.549.001-1.967-.947-3.512-2.325-3.512zm-11-3.089h3.78v13.22h-3.78zm0-4.221l3.78-.8v3.07l-3.78.8zm-4.03 8.477v8.961h-3.764V11.934h3.256l.236 1.114a2.566 2.566 0 0 1 3.143-1.113V15.4a2.672 2.672 0 0 0-2.876.791zm-8.071 4.324c0 2.222 2.377 1.53 2.858 1.337v3.069a5.8 5.8 0 0 1-2.642.5 3.8 3.8 0 0 1-3.912-3.881l.017-12.1 3.676-.784v3.275h2.859v3.222h-2.859zm-4.693.643c0 2.715-2.158 4.263-5.289 4.263a10.442 10.442 0 0 1-4.118-.855v-3.6a9.483 9.483 0 0 0 4.122 1.2c.839 0 1.444-.226 1.444-.923 0-1.8-5.724-1.122-5.724-5.3 0-2.67 2.036-4.267 5.09-4.267a9.944 9.944 0 0 1 3.743.689v3.553a8.42 8.42 0 0 0-3.745-.971c-.789 0-1.28.228-1.28.817-.005 1.708 5.752.9 5.752 5.397z"/>
  </g>
</svg>