<?xml version="1.0" encoding="utf-8"?>
<svg xmlns="http://www.w3.org/2000/svg" width="40" height="40">
  <g data-name="Youtube">
    <path fill="none" d="M0 0h40v40H0z"/>
    <path d="M33.21 12.973c.79 1.289 1.19 3.511 1.19 7.423v.013c0 3.894-.4 6.132-1.188 7.409-.76 1.291-1.584 1.526-3.262 1.634-1.678.092-5.894.147-9.546.147s-7.877-.055-9.553-.149c-1.675-.109-2.5-.343-3.265-1.634C6.8 26.54 6.4 24.302 6.4 20.408v-.013c0-3.911.4-6.133 1.185-7.422.766-1.293 1.592-1.529 3.267-1.621 1.675-.107 5.892-.152 9.548-.152s7.868.045 9.545.154c1.681.09 2.506.327 3.265 1.619zM18.067 25l7-4.6-7-4.6z" fill="#fff" fill-rule="evenodd" data-name="youtube"/>
  </g>
</svg>