<?xml version="1.0" encoding="utf-8"?>
<svg xmlns="http://www.w3.org/2000/svg" data-name="SSL Secured" width="166" height="45">
  <g>
    <rect width="139" height="26" rx="2" transform="translate(27 10)" fill="#fd7c00"/>
    <circle cx="22.5" cy="22.5" r="22.5" fill="#fd7c00"/>
    <path fill="none" d="M12 11.864h21v21H12z"/>
    <path d="M30.925 15.909a9.846 9.846 0 0 1 .714 3.731v.947l-.005.5v10.844a2.057 2.057 0 0 1-2.015 2.106H15.374a2.065 2.065 0 0 1-2.02-2.1v-12.3a9.907 9.907 0 0 1 .719-3.73 9.655 9.655 0 0 1 1.958-3.052 9.081 9.081 0 0 1 2.9-2.072 8.7 8.7 0 0 1 7.129 0 9.1 9.1 0 0 1 2.9 2.074 9.7 9.7 0 0 1 1.965 3.052zm-11.073-2.954a6.728 6.728 0 0 0-2.108 1.52 7.308 7.308 0 0 0-1.482 2.312 9.823 9.823 0 0 0-.516 2.386h13.5a9.721 9.721 0 0 0-.516-2.385 7.341 7.341 0 0 0-1.482-2.315 6.914 6.914 0 0 0-2.157-1.541 6.374 6.374 0 0 0-2.6-.556 6.268 6.268 0 0 0-2.621.571zM21.5 26.5v3.515c0 .711.293 1.289 1 1.289s1-.577 1-1.289V26.5a2.407 2.407 0 0 0 1.386-2.25 2.289 2.289 0 0 0-2.386-2.268 2.289 2.289 0 0 0-2.386 2.268A2.409 2.409 0 0 0 21.5 26.5zM51.958 20.664a2.388 2.388 0 0 0-.358-.264 4.338 4.338 0 0 0-.63-.329 5.426 5.426 0 0 0-.805-.273 3.516 3.516 0 0 0-.882-.112 1.978 1.978 0 0 0-1.19.294.973.973 0 0 0-.392.826.849.849 0 0 0 .147.511 1.271 1.271 0 0 0 .427.357 3.592 3.592 0 0 0 .707.28q.427.126.987.266.728.2 1.323.42a3.585 3.585 0 0 1 1.008.56 2.312 2.312 0 0 1 .637.805 2.669 2.669 0 0 1 .224 1.155 2.876 2.876 0 0 1-.3 1.365 2.529 2.529 0 0 1-.812.917 3.529 3.529 0 0 1-1.176.511 5.9 5.9 0 0 1-1.393.161 7.482 7.482 0 0 1-2.212-.336 6.829 6.829 0 0 1-1.96-.952l.854-1.666a2.7 2.7 0 0 0 .455.329 6.955 6.955 0 0 0 .777.406 6.045 6.045 0 0 0 .994.343 4.491 4.491 0 0 0 1.12.14q1.6 0 1.6-1.022a.838.838 0 0 0-.182-.546 1.544 1.544 0 0 0-.518-.392 4.958 4.958 0 0 0-.812-.308q-.476-.14-1.064-.308a9.045 9.045 0 0 1-1.239-.427 3.257 3.257 0 0 1-.875-.546 2.046 2.046 0 0 1-.525-.728 2.522 2.522 0 0 1-.175-.987 3.09 3.09 0 0 1 .28-1.344 2.716 2.716 0 0 1 .777-.98 3.52 3.52 0 0 1 1.155-.595 4.773 4.773 0 0 1 1.414-.2 5.487 5.487 0 0 1 1.932.329 7.2 7.2 0 0 1 1.54.777zm10.382 0a2.388 2.388 0 0 0-.357-.266 4.338 4.338 0 0 0-.63-.329 5.426 5.426 0 0 0-.805-.273 3.516 3.516 0 0 0-.882-.112 1.978 1.978 0 0 0-1.19.294.973.973 0 0 0-.392.826.849.849 0 0 0 .147.511 1.271 1.271 0 0 0 .427.357 3.592 3.592 0 0 0 .707.28q.427.126.987.266.728.2 1.323.42a3.585 3.585 0 0 1 1.008.56 2.312 2.312 0 0 1 .637.802 2.669 2.669 0 0 1 .224 1.155 2.876 2.876 0 0 1-.3 1.365 2.529 2.529 0 0 1-.812.917 3.529 3.529 0 0 1-1.176.511 5.9 5.9 0 0 1-1.393.161 7.482 7.482 0 0 1-2.212-.336 6.829 6.829 0 0 1-1.96-.952l.854-1.666a2.7 2.7 0 0 0 .455.329 6.955 6.955 0 0 0 .777.406 6.045 6.045 0 0 0 .994.343 4.491 4.491 0 0 0 1.12.14q1.6 0 1.6-1.022a.838.838 0 0 0-.182-.546 1.544 1.544 0 0 0-.518-.392 4.958 4.958 0 0 0-.812-.308q-.476-.14-1.064-.308a9.045 9.045 0 0 1-1.239-.427 3.257 3.257 0 0 1-.875-.546 2.046 2.046 0 0 1-.525-.728 2.522 2.522 0 0 1-.175-.987 3.09 3.09 0 0 1 .28-1.344 2.716 2.716 0 0 1 .777-.98 3.52 3.52 0 0 1 1.155-.595 4.773 4.773 0 0 1 1.414-.2 5.487 5.487 0 0 1 1.932.329 7.2 7.2 0 0 1 1.54.777zM66.8 28v-9.94h1.932v8.246H73.8V28zm20.68-7.336a2.388 2.388 0 0 0-.357-.266 4.338 4.338 0 0 0-.63-.329 5.426 5.426 0 0 0-.8-.273 3.516 3.516 0 0 0-.882-.112 1.978 1.978 0 0 0-1.19.294.973.973 0 0 0-.392.826.849.849 0 0 0 .147.511 1.271 1.271 0 0 0 .427.357 3.592 3.592 0 0 0 .707.28q.427.126.987.266.728.2 1.323.42a3.585 3.585 0 0 1 1.008.56 2.312 2.312 0 0 1 .632.802 2.669 2.669 0 0 1 .224 1.155 2.876 2.876 0 0 1-.3 1.365 2.529 2.529 0 0 1-.812.917 3.529 3.529 0 0 1-1.176.511 5.9 5.9 0 0 1-1.396.164 7.482 7.482 0 0 1-2.212-.336 6.829 6.829 0 0 1-1.96-.952l.854-1.666a2.7 2.7 0 0 0 .455.329 6.955 6.955 0 0 0 .777.406 6.045 6.045 0 0 0 .994.343 4.491 4.491 0 0 0 1.12.14q1.6 0 1.6-1.022a.838.838 0 0 0-.182-.546 1.544 1.544 0 0 0-.518-.392 4.958 4.958 0 0 0-.812-.308q-.476-.14-1.064-.308a9.046 9.046 0 0 1-1.239-.427 3.257 3.257 0 0 1-.875-.546 2.046 2.046 0 0 1-.525-.728 2.522 2.522 0 0 1-.175-.987 3.09 3.09 0 0 1 .28-1.344 2.716 2.716 0 0 1 .777-.98 3.52 3.52 0 0 1 1.155-.595 4.773 4.773 0 0 1 1.414-.2 5.487 5.487 0 0 1 1.932.329 7.2 7.2 0 0 1 1.54.777zm11.362 5.642V28h-6.9v-9.94h6.776v1.694h-4.846v2.394h4.186v1.568h-4.186v2.59zm2.5-3.346a5.148 5.148 0 0 1 .329-1.8 4.825 4.825 0 0 1 2.5-2.723 4.756 4.756 0 0 1 2.071-.437 4.518 4.518 0 0 1 2.373.6 3.845 3.845 0 0 1 1.491 1.568l-1.484 1.032a2.538 2.538 0 0 0-.476-.707 2.381 2.381 0 0 0-.6-.455 2.7 2.7 0 0 0-.672-.245 3.187 3.187 0 0 0-.686-.077 2.606 2.606 0 0 0-1.267.294 2.787 2.787 0 0 0-.9.763 3.364 3.364 0 0 0-.539 1.064 4.027 4.027 0 0 0-.182 1.183 3.859 3.859 0 0 0 .21 1.267 3.372 3.372 0 0 0 .6 1.071 2.976 2.976 0 0 0 .924.742 2.527 2.527 0 0 0 1.183.28 3.112 3.112 0 0 0 .7-.084 2.661 2.661 0 0 0 .693-.266 2.626 2.626 0 0 0 .609-.469 2.165 2.165 0 0 0 .448-.693l1.582.91a2.988 2.988 0 0 1-.679.987 4.369 4.369 0 0 1-.994.721 5.077 5.077 0 0 1-1.183.448 5.178 5.178 0 0 1-1.232.154 4.234 4.234 0 0 1-1.946-.448 5.068 5.068 0 0 1-1.519-1.169 5.425 5.425 0 0 1-.994-1.638 5.112 5.112 0 0 1-.36-1.873zm16.206 3.4a2.217 2.217 0 0 0 1.155-.28 2.258 2.258 0 0 0 .756-.728 3.006 3.006 0 0 0 .406-1.029 5.95 5.95 0 0 0 .119-1.2V18.06h1.916v5.068a7.246 7.246 0 0 1-.245 1.918 4.4 4.4 0 0 1-.77 1.568 3.69 3.69 0 0 1-1.351 1.064 4.569 4.569 0 0 1-1.974.392 4.519 4.519 0 0 1-2.023-.413 3.775 3.775 0 0 1-1.351-1.092 4.358 4.358 0 0 1-.749-1.575 7.429 7.429 0 0 1-.231-1.862V18.06h1.932v5.068a6.022 6.022 0 0 0 .119 1.211 3.006 3.006 0 0 0 .406 1.029 2.106 2.106 0 0 0 1.883.994zm8.1 1.638V18.06h4.4a2.821 2.821 0 0 1 1.267.287 3.278 3.278 0 0 1 1 .756 3.568 3.568 0 0 1 .658 1.064 3.2 3.2 0 0 1 .238 1.2 3.306 3.306 0 0 1-.483 1.757 2.772 2.772 0 0 1-1.309 1.141L133.684 28h-2.17l-2.03-3.332h-1.9V28zm1.932-5.026H130a1.022 1.022 0 0 0 .5-.126 1.271 1.271 0 0 0 .4-.343 1.71 1.71 0 0 0 .266-.511 1.98 1.98 0 0 0 .1-.63 1.8 1.8 0 0 0-.112-.644 1.68 1.68 0 0 0-.3-.511 1.361 1.361 0 0 0-.434-.336 1.127 1.127 0 0 0-.5-.119h-2.34zm16.08 3.332V28h-6.9v-9.94h6.776v1.694h-4.846v2.394h4.186v1.568h-4.186v2.59zM146.972 28v-9.94h3.612a5.4 5.4 0 0 1 2.135.392 4.292 4.292 0 0 1 2.457 2.639 5.923 5.923 0 0 1 .308 1.925 5.819 5.819 0 0 1-.343 2.051 4.378 4.378 0 0 1-.987 1.568 4.444 4.444 0 0 1-1.547 1.008 5.462 5.462 0 0 1-2.023.357zm6.566-4.984a4.23 4.23 0 0 0-.2-1.316 2.943 2.943 0 0 0-.574-1.036 2.555 2.555 0 0 0-.931-.672 3.141 3.141 0 0 0-1.253-.238h-1.68v6.552h1.68a3.025 3.025 0 0 0 1.267-.252 2.594 2.594 0 0 0 .924-.693 3.082 3.082 0 0 0 .567-1.043 4.182 4.182 0 0 0 .2-1.302z" fill="#fff"/>
  </g>
</svg>