<?xml version="1.0" encoding="utf-8"?>
<svg xmlns="http://www.w3.org/2000/svg" width="47" height="34">
  <defs>
    <linearGradient id="a" x1=".5" y1=".223" x2=".473" y2=".743" gradientUnits="objectBoundingBox">
      <stop offset="0" stop-color="#6c79b4"/>
      <stop offset="1" stop-color="#4d588d"/>
    </linearGradient>
  </defs>
  <g data-name="MasterCard">
    <path d="M47 29.75A4.106 4.106 0 0 1 43.083 34H3.917A4.106 4.106 0 0 1 0 29.75V4.25A4.106 4.106 0 0 1 3.917 0h39.166A4.106 4.106 0 0 1 47 4.25z" fill="url(#a)"/>
    <path data-name="Shape" d="M45.82 0A4.626 4.626 0 0 1 47 3.116v26.472C47 32 47 32 46 33a3.6 3.6 0 0 1-3.015 1H2.835A3.829 3.829 0 0 1 0 32.7z" fill="#fff" opacity=".15"/>
    <g fill="#ea564b">
      <path data-name="Shape" d="M23.994 10.941A7.765 7.765 0 0 0 18 8.035a8.287 8.287 0 0 0-8 8.548 8.288 8.288 0 0 0 8 8.552 7.764 7.764 0 0 0 6-2.907 8.959 8.959 0 0 1 0-11.283z"/>
      <path data-name="Shape" d="M23.838 10.744a8.959 8.959 0 0 0 0 11.283 8.959 8.959 0 0 0 0-11.283z"/>
    </g>
    <path data-name="Shape" d="M29.644 8a7.765 7.765 0 0 0-6 2.906 8.68 8.68 0 0 0-.915 1.368h1.83a8.885 8.885 0 0 1 .7 1.71h-3.236a8.97 8.97 0 0 0-.335 1.71h3.9c.027.282.054.564.054.855s-.016.574-.042.855h-3.912a8.97 8.97 0 0 0 .335 1.71h3.244a8.871 8.871 0 0 1-.709 1.71H22.73a8.7 8.7 0 0 0 .915 1.367 7.764 7.764 0 0 0 6 2.907 8.288 8.288 0 0 0 8-8.548A8.285 8.285 0 0 0 29.644 8z" fill="#e9d419"/>
  </g>
</svg>