<?xml version="1.0" encoding="utf-8"?>
<svg xmlns="http://www.w3.org/2000/svg" width="47" height="34">
  <defs>
    <linearGradient id="a" x1=".047" y1=".238" x2=".94" y2=".762" gradientUnits="objectBoundingBox">
      <stop offset="0" stop-color="#fff"/>
      <stop offset="1" stop-color="#eaedec"/>
    </linearGradient>
    <linearGradient id="b" x1=".5" y1="1" x2=".5" y2=".105" gradientUnits="objectBoundingBox">
      <stop offset="0" stop-color="#4c5ba4"/>
      <stop offset="1" stop-color="#6572ad"/>
    </linearGradient>
    <linearGradient id="c" x1=".471" y1=".971" x2=".471" y2=".135" gradientUnits="objectBoundingBox">
      <stop offset="0" stop-color="#e6a42c"/>
      <stop offset="1" stop-color="#efb346"/>
    </linearGradient>
  </defs>
  <g data-name="VISA">
    <path d="M47 29.75A4.106 4.106 0 0 1 43.083 34H3.917A4.106 4.106 0 0 1 0 29.75V4.25A4.106 4.106 0 0 1 3.917 0h39.166A4.106 4.106 0 0 1 47 4.25z" fill="url(#a)"/>
    <path data-name="Shape" d="M0 7.5V3.75A3.921 3.921 0 0 1 4.052 0h38.9A3.921 3.921 0 0 1 47 3.75V7.5" fill="url(#b)"/>
    <path data-name="Shape" d="M47 26.5v4.167C47 32.958 45.177 34 42.948 34H4.052C1.823 34 0 32.958 0 30.667V26.5" fill="url(#c)"/>
    <g fill="#6e79ab">
      <path data-name="Shape" d="M13.193 19.8a20.048 20.048 0 0 1 .687-1.89l2.699-5.881h1.974l-4.673 9.763h-2.087L11 12.029h1.843l.318 5.877c.016.2.025.5.025.888q-.014.689-.038 1zM18.24 21.792l1.95-9.763h1.91l-1.954 9.763zM27.993 19.048a2.789 2.789 0 0 1-.924 2.207 3.665 3.665 0 0 1-2.505.811 3.748 3.748 0 0 1-2.224-.6v-1.83a4.417 4.417 0 0 0 2.237.721 1.833 1.833 0 0 0 1.093-.284.906.906 0 0 0 .393-.778 1.4 1.4 0 0 0-.084-.5 1.493 1.493 0 0 0-.241-.4 6.8 6.8 0 0 0-.775-.681A4.33 4.33 0 0 1 23.75 16.4a2.879 2.879 0 0 1-.35-1.4 3.041 3.041 0 0 1 .387-1.54 2.673 2.673 0 0 1 1.103-1.054 3.475 3.475 0 0 1 1.646-.377 4.814 4.814 0 0 1 2.481.661l-.681 1.556a4.02 4.02 0 0 0-1.8-.494 1.209 1.209 0 0 0-.849.3 1.02 1.02 0 0 0-.331.795 1.233 1.233 0 0 0 .206.711 3.838 3.838 0 0 0 .924.8 3.845 3.845 0 0 1 1.131 1.179 2.954 2.954 0 0 1 .376 1.511zM34.788 19.508h-2.954l-1.075 2.324h-2l4.785-9.8h2.33l.918 9.8h-1.854zm-.094-1.736l-.162-2.337q-.064-.874-.062-1.69V13.5q-.276.8-.681 1.7l-1.176 2.572z"/>
    </g>
    <path data-name="Shape" d="M45.82 0A4.626 4.626 0 0 1 47 3.116v26.472C47 32 47 32 46 33a3.6 3.6 0 0 1-3.015 1H2.835A3.829 3.829 0 0 1 0 32.7z" fill="#fff" opacity=".15"/>
  </g>
</svg>